<?xml version="1.0" standalone="no"?>
<!DOCTYPE svg PUBLIC "-//W3C//DTD SVG 20010904//EN"
 "http://www.w3.org/TR/2001/REC-SVG-20010904/DTD/svg10.dtd">
<svg version="1.0" xmlns="http://www.w3.org/2000/svg"
 width="512.000000pt" height="512.000000pt" viewBox="0 0 512.000000 512.000000"
 preserveAspectRatio="xMidYMid meet">
<metadata>
Created by potrace 1.11, written by Peter Selinger 2001-2013
</metadata>
<g transform="translate(0.000000,512.000000) scale(0.100000,-0.100000)"
fill="#000000" stroke="none">
<path d="M2378 4415 c-2 -2 -25 -6 -53 -9 -27 -3 -61 -8 -75 -11 -13 -2 -41
-7 -62 -10 -166 -25 -433 -129 -623 -243 -217 -130 -449 -350 -592 -562 -169
-253 -265 -500 -318 -825 -4 -22 -8 -123 -10 -225 -4 -248 30 -467 105 -676
166 -458 492 -832 921 -1057 57 -31 133 -66 169 -80 36 -14 74 -28 85 -32 11
-5 22 -9 25 -10 3 0 30 -8 60 -17 309 -93 631 -105 960 -37 101 20 277 75 298
91 6 6 12 8 12 4 0 -3 27 7 60 24 33 16 66 30 74 30 8 0 16 3 18 8 2 4 23 18
48 31 46 24 241 150 250 161 3 3 23 19 45 36 51 37 241 227 280 279 16 22 32
42 35 45 52 48 219 344 265 470 25 67 82 260 89 300 3 19 8 46 11 60 26 123
36 354 21 510 -55 596 -365 1109 -871 1443 -185 122 -474 239 -670 271 -16 3
-46 8 -65 12 -92 16 -168 22 -322 22 -92 -1 -169 -2 -170 -3z"/>
</g>
</svg>
